<mxfile host="app.diagrams.net" modified="2021-07-23T08:37:56.590Z" agent="5.0 (Macintosh; Intel Mac OS X 10_15_7) AppleWebKit/537.36 (KHTML, like Gecko) Chrome/86.0.4240.193 Safari/537.36" etag="Sll9kku2UHG85GiCJpun" version="14.9.1" type="github">
  <diagram id="JkZPQYlxQQXMIrby8k0a" name="Page-1">
    <mxGraphModel dx="946" dy="536" grid="1" gridSize="10" guides="1" tooltips="1" connect="1" arrows="1" fold="1" page="1" pageScale="1" pageWidth="827" pageHeight="1169" math="0" shadow="0">
      <root>
        <mxCell id="0" />
        <mxCell id="1" parent="0" />
        <mxCell id="1ckluw9A6b03gDBRV9iU-11" value="" style="edgeStyle=orthogonalEdgeStyle;rounded=0;orthogonalLoop=1;jettySize=auto;html=1;" edge="1" parent="1" source="1ckluw9A6b03gDBRV9iU-1" target="1ckluw9A6b03gDBRV9iU-2">
          <mxGeometry relative="1" as="geometry" />
        </mxCell>
        <mxCell id="1ckluw9A6b03gDBRV9iU-1" value="新对象申请空间" style="rounded=1;whiteSpace=wrap;html=1;fillColor=#d5e8d4;strokeColor=#82b366;" vertex="1" parent="1">
          <mxGeometry x="130" y="120" width="120" height="60" as="geometry" />
        </mxCell>
        <mxCell id="1ckluw9A6b03gDBRV9iU-14" value="" style="edgeStyle=orthogonalEdgeStyle;rounded=0;orthogonalLoop=1;jettySize=auto;html=1;" edge="1" parent="1" source="1ckluw9A6b03gDBRV9iU-2" target="1ckluw9A6b03gDBRV9iU-4">
          <mxGeometry relative="1" as="geometry" />
        </mxCell>
        <mxCell id="1ckluw9A6b03gDBRV9iU-19" style="edgeStyle=orthogonalEdgeStyle;rounded=0;orthogonalLoop=1;jettySize=auto;html=1;exitX=0;exitY=0.5;exitDx=0;exitDy=0;entryX=0;entryY=0.5;entryDx=0;entryDy=0;" edge="1" parent="1" source="1ckluw9A6b03gDBRV9iU-2" target="1ckluw9A6b03gDBRV9iU-3">
          <mxGeometry relative="1" as="geometry">
            <Array as="points">
              <mxPoint x="80" y="260" />
              <mxPoint x="80" y="350" />
            </Array>
          </mxGeometry>
        </mxCell>
        <mxCell id="1ckluw9A6b03gDBRV9iU-2" value="Eden区是否&lt;br&gt;放得下" style="rhombus;whiteSpace=wrap;html=1;fillColor=#fff2cc;strokeColor=#d6b656;" vertex="1" parent="1">
          <mxGeometry x="115" y="230" width="150" height="60" as="geometry" />
        </mxCell>
        <mxCell id="1ckluw9A6b03gDBRV9iU-3" value="分配对象内存" style="rounded=1;whiteSpace=wrap;html=1;fillColor=#dae8fc;strokeColor=#6c8ebf;" vertex="1" parent="1">
          <mxGeometry x="130" y="320" width="120" height="60" as="geometry" />
        </mxCell>
        <mxCell id="1ckluw9A6b03gDBRV9iU-15" value="" style="edgeStyle=orthogonalEdgeStyle;rounded=0;orthogonalLoop=1;jettySize=auto;html=1;" edge="1" parent="1" source="1ckluw9A6b03gDBRV9iU-4" target="1ckluw9A6b03gDBRV9iU-6">
          <mxGeometry relative="1" as="geometry" />
        </mxCell>
        <mxCell id="1ckluw9A6b03gDBRV9iU-4" value="YGC" style="rounded=1;whiteSpace=wrap;html=1;fillColor=#d5e8d4;strokeColor=#82b366;" vertex="1" parent="1">
          <mxGeometry x="320" y="240" width="86" height="40" as="geometry" />
        </mxCell>
        <mxCell id="1ckluw9A6b03gDBRV9iU-16" value="" style="edgeStyle=orthogonalEdgeStyle;rounded=0;orthogonalLoop=1;jettySize=auto;html=1;" edge="1" parent="1" source="1ckluw9A6b03gDBRV9iU-6" target="1ckluw9A6b03gDBRV9iU-7">
          <mxGeometry relative="1" as="geometry" />
        </mxCell>
        <mxCell id="1ckluw9A6b03gDBRV9iU-17" value="" style="edgeStyle=orthogonalEdgeStyle;rounded=0;orthogonalLoop=1;jettySize=auto;html=1;" edge="1" parent="1" source="1ckluw9A6b03gDBRV9iU-6" target="1ckluw9A6b03gDBRV9iU-3">
          <mxGeometry relative="1" as="geometry" />
        </mxCell>
        <mxCell id="1ckluw9A6b03gDBRV9iU-6" value="Eden区是否&lt;br&gt;放得下" style="rhombus;whiteSpace=wrap;html=1;fillColor=#fff2cc;strokeColor=#d6b656;" vertex="1" parent="1">
          <mxGeometry x="288" y="320" width="150" height="60" as="geometry" />
        </mxCell>
        <mxCell id="1ckluw9A6b03gDBRV9iU-21" value="" style="edgeStyle=orthogonalEdgeStyle;rounded=0;orthogonalLoop=1;jettySize=auto;html=1;" edge="1" parent="1" source="1ckluw9A6b03gDBRV9iU-7" target="1ckluw9A6b03gDBRV9iU-8">
          <mxGeometry relative="1" as="geometry" />
        </mxCell>
        <mxCell id="1ckluw9A6b03gDBRV9iU-26" style="edgeStyle=orthogonalEdgeStyle;rounded=0;orthogonalLoop=1;jettySize=auto;html=1;exitX=0;exitY=0.5;exitDx=0;exitDy=0;entryX=0.75;entryY=1;entryDx=0;entryDy=0;" edge="1" parent="1" source="1ckluw9A6b03gDBRV9iU-7" target="1ckluw9A6b03gDBRV9iU-3">
          <mxGeometry relative="1" as="geometry" />
        </mxCell>
        <mxCell id="1ckluw9A6b03gDBRV9iU-7" value="Old区是否&lt;br&gt;放得下" style="rhombus;whiteSpace=wrap;html=1;fillColor=#fff2cc;strokeColor=#d6b656;" vertex="1" parent="1">
          <mxGeometry x="288" y="410" width="150" height="60" as="geometry" />
        </mxCell>
        <mxCell id="1ckluw9A6b03gDBRV9iU-22" value="" style="edgeStyle=orthogonalEdgeStyle;rounded=0;orthogonalLoop=1;jettySize=auto;html=1;" edge="1" parent="1" source="1ckluw9A6b03gDBRV9iU-8" target="1ckluw9A6b03gDBRV9iU-9">
          <mxGeometry relative="1" as="geometry" />
        </mxCell>
        <mxCell id="1ckluw9A6b03gDBRV9iU-8" value="FGC" style="rounded=1;whiteSpace=wrap;html=1;fillColor=#d5e8d4;strokeColor=#82b366;" vertex="1" parent="1">
          <mxGeometry x="320" y="510" width="86" height="40" as="geometry" />
        </mxCell>
        <mxCell id="1ckluw9A6b03gDBRV9iU-23" value="" style="edgeStyle=orthogonalEdgeStyle;rounded=0;orthogonalLoop=1;jettySize=auto;html=1;" edge="1" parent="1" source="1ckluw9A6b03gDBRV9iU-9" target="1ckluw9A6b03gDBRV9iU-10">
          <mxGeometry relative="1" as="geometry" />
        </mxCell>
        <mxCell id="1ckluw9A6b03gDBRV9iU-24" style="edgeStyle=orthogonalEdgeStyle;rounded=0;orthogonalLoop=1;jettySize=auto;html=1;exitX=0.5;exitY=0;exitDx=0;exitDy=0;entryX=0.5;entryY=1;entryDx=0;entryDy=0;" edge="1" parent="1" source="1ckluw9A6b03gDBRV9iU-9" target="1ckluw9A6b03gDBRV9iU-3">
          <mxGeometry relative="1" as="geometry" />
        </mxCell>
        <mxCell id="1ckluw9A6b03gDBRV9iU-9" value="Old区是否&lt;br&gt;放得下" style="rhombus;whiteSpace=wrap;html=1;fillColor=#fff2cc;strokeColor=#d6b656;" vertex="1" parent="1">
          <mxGeometry x="115" y="500" width="150" height="60" as="geometry" />
        </mxCell>
        <mxCell id="1ckluw9A6b03gDBRV9iU-10" value="OOM" style="rounded=1;whiteSpace=wrap;html=1;fillColor=#dae8fc;strokeColor=#6c8ebf;" vertex="1" parent="1">
          <mxGeometry x="130" y="600" width="120" height="60" as="geometry" />
        </mxCell>
        <mxCell id="1ckluw9A6b03gDBRV9iU-18" value="是" style="text;html=1;align=center;verticalAlign=middle;resizable=0;points=[];autosize=1;strokeColor=none;" vertex="1" parent="1">
          <mxGeometry x="258" y="320" width="30" height="20" as="geometry" />
        </mxCell>
        <mxCell id="1ckluw9A6b03gDBRV9iU-20" value="是" style="text;html=1;align=center;verticalAlign=middle;resizable=0;points=[];autosize=1;strokeColor=none;" vertex="1" parent="1">
          <mxGeometry x="45" y="290" width="30" height="20" as="geometry" />
        </mxCell>
        <mxCell id="1ckluw9A6b03gDBRV9iU-27" value="是" style="text;html=1;align=center;verticalAlign=middle;resizable=0;points=[];autosize=1;strokeColor=none;" vertex="1" parent="1">
          <mxGeometry x="245" y="410" width="30" height="20" as="geometry" />
        </mxCell>
        <mxCell id="1ckluw9A6b03gDBRV9iU-29" value="是" style="text;html=1;align=center;verticalAlign=middle;resizable=0;points=[];autosize=1;strokeColor=none;" vertex="1" parent="1">
          <mxGeometry x="145" y="430" width="30" height="20" as="geometry" />
        </mxCell>
        <mxCell id="1ckluw9A6b03gDBRV9iU-30" value="否" style="text;html=1;align=center;verticalAlign=middle;resizable=0;points=[];autosize=1;strokeColor=none;" vertex="1" parent="1">
          <mxGeometry x="145" y="565" width="30" height="20" as="geometry" />
        </mxCell>
      </root>
    </mxGraphModel>
  </diagram>
</mxfile>
